<!DOCTYPE svg PUBLIC "-//W3C//DTD SVG 1.1//EN" "http://www.w3.org/Graphics/SVG/1.1/DTD/svg11.dtd">
<!-- Uploaded to: SVG Repo, www.svgrepo.com, Transformed by: SVG Repo Mixer Tools -->
<svg width="256px" height="256px" viewBox="-2.16 -2.16 28.32 28.32" id="Layer_1" data-name="Layer 1" xmlns="http://www.w3.org/2000/svg" fill="#000000">
<g id="SVGRepo_bgCarrier" stroke-width="0"/>
<g id="SVGRepo_tracerCarrier" stroke-linecap="round" stroke-linejoin="round" stroke="#CCCCCC" stroke-width="0.528">
<defs>
<style>.cls-1{fill:none;stroke:#6958ee;stroke-miterlimit:10;stroke-width:1.91px;}</style>
</defs>
<polygon class="cls-1" points="12.37 10.09 7.41 10.09 4.93 14.39 7.41 18.68 12.37 18.68 14.85 14.39 12.37 10.09"/>
<line class="cls-1" x1="0.52" y1="13.91" x2="5.29" y2="13.91"/>
<polygon class="cls-1" points="19.82 6.27 14.86 6.27 12.38 10.57 14.86 14.86 19.82 14.86 22.3 10.57 19.82 6.27"/>
<line class="cls-1" x1="19.49" y1="6.56" x2="21.86" y2="2.45"/>
<line class="cls-1" x1="19.56" y1="14.46" x2="21.93" y2="18.56"/>
<polyline class="cls-1" points="7.41 1.5 4.93 5.79 7.41 10.09"/>
<polyline class="cls-1" points="19.61 22.5 14.8 22.5 12.58 18.68"/>
</g>
<g id="SVGRepo_iconCarrier">
<defs>
<style>.cls-1{fill:none;stroke:#6958ee;stroke-miterlimit:10;stroke-width:0.552;}</style>
</defs>
<polygon class="cls-1" points="12.37 10.09 7.41 10.09 4.93 14.39 7.41 18.68 12.37 18.68 14.85 14.39 12.37 10.09"/>
<line class="cls-1" x1="0.52" y1="13.91" x2="5.29" y2="13.91"/>
<polygon class="cls-1" points="19.82 6.27 14.86 6.27 12.38 10.57 14.86 14.86 19.82 14.86 22.3 10.57 19.82 6.27"/>
<line class="cls-1" x1="19.49" y1="6.56" x2="21.86" y2="2.45"/>
<line class="cls-1" x1="19.56" y1="14.46" x2="21.93" y2="18.56"/>
<polyline class="cls-1" points="7.41 1.5 4.93 5.79 7.41 10.09"/>
<polyline class="cls-1" points="19.61 22.5 14.8 22.5 12.58 18.68"/>
</g>
</svg>